<svg version="1.1" id="Layer_1" xmlns="http://www.w3.org/2000/svg" xmlns:xlink="http://www.w3.org/1999/xlink" x="0px" y="0px"
	 width="100%" viewBox="0 0 1920 600" enable-background="new 0 0 1920 600" xml:space="preserve">
<path fill="#000000" opacity="1.000000" stroke="none" 
	d="
M1356.000000,601.000000 
	C904.000000,601.000000 452.500000,601.000000 1.000000,601.000000 
	C1.000000,401.000000 1.000000,201.000000 1.000000,1.000000 
	C641.000000,1.000000 1281.000000,1.000000 1921.000000,1.000000 
	C1921.000000,201.000000 1921.000000,401.000000 1921.000000,601.000000 
	C1732.833374,601.000000 1544.666626,601.000000 1356.000000,601.000000 
M762.164368,217.167709 
	C762.164368,217.167709 762.171692,217.297272 761.504395,217.271927 
	C759.463806,219.639435 757.206360,221.854675 755.419312,224.400146 
	C746.490967,237.117935 741.338074,251.241730 739.739380,266.723236 
	C739.169617,272.240417 739.640015,273.127258 745.183411,273.144073 
	C753.847717,273.170380 762.512085,273.147003 771.176453,273.134491 
	C778.618958,273.123749 779.191589,272.628784 780.151611,265.105652 
	C782.767639,244.605820 799.171753,230.148315 817.987427,228.187119 
	C832.118896,226.714172 845.566711,227.894348 856.754822,237.845703 
	C860.033264,240.761719 862.813538,244.237778 866.036682,247.686737 
	C875.403442,242.198471 884.678162,236.838303 893.875000,231.347748 
	C899.502197,227.988327 899.265564,228.029602 895.380005,222.609451 
	C885.587646,208.949890 872.550293,199.459946 856.896851,194.064651 
	C849.259705,191.432343 840.847839,191.047592 831.917419,189.452637 
	C828.334656,189.454086 824.751892,189.455536 820.280090,189.132172 
	C802.158142,189.697693 786.116455,196.017502 771.970886,207.109100 
	C768.344116,209.952896 765.498413,213.792938 762.164368,217.167709 
M1157.473999,318.062134 
	C1160.635376,318.051849 1163.850342,318.388245 1166.939453,317.910370 
	C1169.023193,317.588074 1171.376587,316.557587 1172.833008,315.079193 
	C1177.604858,310.235901 1184.150269,309.690674 1188.769775,314.185486 
	C1193.202271,318.498352 1193.224487,325.029419 1188.820801,329.328003 
	C1184.157471,333.880341 1177.720337,333.378937 1172.873047,328.655762 
	C1171.215698,327.040985 1168.469727,325.817627 1166.166870,325.721863 
	C1157.849365,325.376038 1149.500122,325.808899 1141.180176,325.494446 
	C1136.908203,325.333008 1135.434448,326.387512 1135.479614,330.969330 
	C1135.716309,354.964020 1135.586426,378.962280 1135.599365,402.959320 
	C1135.600220,404.421509 1135.734985,405.883667 1135.840332,408.008331 
	C1146.140625,408.008331 1156.158691,407.801178 1166.161377,408.104034 
	C1170.540527,408.236633 1171.497437,406.521301 1171.452759,402.565826 
	C1171.285889,387.736725 1171.385498,372.904572 1171.385254,358.073578 
	C1171.385254,355.861908 1171.385376,353.650208 1171.385376,350.634186 
	C1173.112549,351.593048 1174.210083,351.948639 1174.971436,352.662598 
	C1189.293457,366.092010 1216.120972,366.507843 1232.481689,356.942078 
	C1257.697754,342.198639 1269.754761,311.752167 1261.656738,282.945709 
	C1261.291260,281.645508 1258.998291,280.011261 1257.597046,280.005707 
	C1218.116699,279.848602 1178.635498,279.898529 1139.154541,279.843231 
	C1136.618530,279.839691 1135.532837,280.585724 1135.555542,283.242889 
	C1135.643921,293.574188 1135.622925,303.906830 1135.574707,314.238647 
	C1135.561768,317.003937 1136.778564,318.117737 1139.517578,318.065094 
	C1145.171509,317.956421 1150.828491,317.999451 1157.473999,318.062134 
M1006.611145,335.920807 
	C1014.685120,347.102081 1024.947144,355.577362 1038.057007,360.045044 
	C1068.462402,370.406799 1100.130127,358.039581 1115.716675,330.062744 
	C1117.500854,326.860199 1117.155029,325.008698 1113.853882,322.778198 
	C1096.140137,310.809631 1078.692383,298.447876 1061.010132,286.431763 
	C1057.151733,283.809692 1052.794800,280.395294 1048.524658,280.180145 
	C1033.409058,279.418518 1018.230103,279.790497 1003.080017,280.034821 
	C1001.583313,280.058960 999.038818,281.975128 998.821655,283.312042 
	C997.661499,290.457092 996.412231,297.702118 996.465820,304.903137 
	C996.547729,315.900757 1000.659241,325.913116 1006.611145,335.920807 
M816.203064,362.851318 
	C856.123474,368.009003 889.290649,344.280212 897.585266,324.332550 
	C888.368103,318.913788 879.010071,313.676788 869.958740,307.954681 
	C866.558777,305.805267 864.770325,306.536438 862.727783,309.434540 
	C849.236816,328.576233 819.556519,329.911224 801.734131,320.250580 
	C787.242432,312.395325 780.662354,299.263428 778.505432,283.537354 
	C778.179565,281.161652 777.728210,279.834778 775.065002,279.849152 
	C764.413025,279.906647 753.760620,279.864075 743.108337,279.860077 
	C740.476196,279.859070 739.463501,281.258575 740.064575,283.705872 
	C742.418884,293.292297 743.660522,303.361633 747.458984,312.345367 
	C760.081238,342.198456 783.352905,358.505035 816.203064,362.851318 
M1187.729858,240.460999 
	C1182.320923,243.573547 1176.911987,246.686111 1171.131104,250.012711 
	C1171.131104,248.627197 1171.071899,247.813019 1171.140503,247.009735 
	C1171.687256,240.597961 1171.694702,240.593903 1165.241455,240.589722 
	C1157.411743,240.584656 1149.571289,240.833908 1141.756226,240.496170 
	C1137.095581,240.294739 1135.130493,241.475204 1135.470215,246.532333 
	C1135.904541,253.000198 1135.994751,259.554993 1135.445923,266.005310 
	C1134.988037,271.386017 1137.098877,272.323181 1141.896729,272.301300 
	C1179.411011,272.130035 1216.926270,272.196777 1254.441284,272.162720 
	C1255.343140,272.161896 1256.244751,271.843719 1257.199707,271.663452 
	C1249.426636,249.950439 1220.960327,228.976212 1187.729858,240.460999 
M917.267212,296.503754 
	C917.257935,316.161743 917.248718,335.819702 917.239197,355.477692 
	C917.238159,357.618469 916.744568,360.161804 920.070862,360.177979 
	C930.979675,360.230988 941.889038,360.197876 953.430420,360.197876 
	C953.430420,357.876801 953.430420,356.091309 953.430420,354.305817 
	C953.430420,337.979553 953.450867,321.653229 953.422546,305.326996 
	C953.406860,296.253448 956.853699,288.954407 964.350220,283.716064 
	C965.836182,282.677826 967.474976,281.858398 969.405762,280.725311 
	C968.373718,280.176422 967.948486,279.752472 967.523438,279.752747 
	C951.877014,279.763062 936.230652,279.834320 920.584229,279.835724 
	C917.973206,279.835938 917.095947,280.973969 917.198975,283.513855 
	C917.360840,287.505768 917.257996,291.508392 917.267212,296.503754 
M1098.361328,250.196274 
	C1069.495483,228.213989 1028.542969,234.362061 1007.664062,263.890076 
	C1006.029358,266.202026 1004.994812,268.938324 1003.681335,271.477417 
	C1006.221497,271.708496 1008.761475,272.137756 1011.301941,272.140656 
	C1044.312134,272.178436 1077.322388,272.166687 1110.332642,272.118652 
	C1112.139282,272.116028 1113.945435,271.684113 1115.751831,271.452026 
	C1116.025024,270.903351 1116.298218,270.354675 1116.571411,269.806000 
	C1110.698364,263.398590 1104.825317,256.991180 1098.361328,250.196274 
M692.429504,240.231781 
	C684.698181,238.360016 676.976929,236.445358 669.231140,234.635529 
	C665.645386,233.797714 663.169861,235.404709 662.674561,238.928543 
	C661.730591,245.644928 660.411621,252.448761 660.665039,259.162842 
	C661.130066,271.483612 666.659546,281.724060 678.383850,286.352814 
	C690.452026,291.117249 703.224731,294.084381 715.650085,297.963104 
	C720.485107,299.472382 722.588501,297.005219 723.382324,292.886688 
	C724.150208,288.902924 724.459229,284.830688 724.979736,280.718750 
	C720.447571,278.844238 716.807861,278.574005 713.638184,282.792999 
	C710.710876,286.689301 706.460754,287.533264 702.012939,285.863556 
	C697.792664,284.279358 695.546753,281.272491 695.394714,276.376678 
	C695.234436,271.214874 697.600952,268.118988 701.919800,266.305115 
	C706.672546,264.308990 710.685852,265.981842 713.975830,269.662476 
	C717.090820,273.147369 720.535583,273.557281 724.450806,271.212738 
	C723.966064,264.397186 721.432678,258.821075 717.077271,253.948074 
	C710.624451,246.728470 702.086853,243.319611 692.429504,240.231781 
M917.195190,244.024292 
	C917.213867,252.022995 917.407166,260.027008 917.163696,268.017761 
	C917.068787,271.132507 918.003052,272.184692 921.020325,272.181610 
	C942.442078,272.159760 963.864380,272.282104 985.284668,272.118622 
	C986.573608,272.108795 988.919067,270.074493 988.957520,268.921631 
	C989.263062,259.765961 989.239441,250.592545 988.986694,241.433670 
	C988.955811,240.314117 986.708801,238.147781 985.935181,238.332870 
	C980.023376,239.747177 973.653442,240.646851 968.540100,243.621552 
	C962.965515,246.864578 958.587769,252.164871 953.439941,256.791595 
	C953.439941,253.008255 953.195923,248.906021 953.515076,244.848099 
	C953.784119,241.427200 952.458496,240.477280 949.277161,240.519958 
	C940.112976,240.642929 930.942932,240.442963 921.783203,240.679245 
	C920.213928,240.719711 918.683899,242.282150 917.195190,244.024292 
M687.961975,310.596191 
	C687.961426,326.066833 688.059204,341.538544 687.891113,357.007355 
	C687.849304,360.862885 688.956299,362.328949 692.990356,362.182953 
	C700.787720,361.900787 708.605469,361.970551 716.408630,362.155151 
	C720.165649,362.244019 721.225037,360.803589 721.180115,357.136932 
	C720.992676,341.835907 720.898621,326.527527 721.208130,311.230713 
	C721.292358,307.070068 719.605774,305.697784 716.093079,304.927887 
	C706.937927,302.921265 697.815247,300.766663 687.961914,298.506409 
	C687.961914,302.237915 687.961914,305.935852 687.961975,310.596191 
M1089.501587,279.617981 
	C1081.489624,279.617981 1073.477783,279.617981 1065.465820,279.617981 
	C1065.416870,279.935883 1065.368042,280.253815 1065.319092,280.571716 
	C1083.372192,293.012390 1101.425293,305.453094 1120.155273,318.360260 
	C1120.950928,315.503601 1121.665039,313.666962 1121.957520,311.765503 
	C1123.361938,302.637482 1123.205444,293.616302 1120.962036,284.539795 
	C1119.985596,280.589844 1118.258545,279.400757 1114.493164,279.493774 
	C1106.500000,279.691132 1098.499512,279.597656 1089.501587,279.617981 
z"/>
<path fill="#FAFAFA" opacity="1.000000" stroke="none" 
	d="
M1156.979004,318.021118 
	C1150.828491,317.999451 1145.171509,317.956421 1139.517578,318.065094 
	C1136.778564,318.117737 1135.561768,317.003937 1135.574707,314.238647 
	C1135.622925,303.906830 1135.643921,293.574188 1135.555542,283.242889 
	C1135.532837,280.585724 1136.618530,279.839691 1139.154541,279.843231 
	C1178.635498,279.898529 1218.116699,279.848602 1257.597046,280.005707 
	C1258.998291,280.011261 1261.291260,281.645508 1261.656738,282.945709 
	C1269.754761,311.752167 1257.697754,342.198639 1232.481689,356.942078 
	C1216.120972,366.507843 1189.293457,366.092010 1174.971436,352.662598 
	C1174.210083,351.948639 1173.112549,351.593048 1171.385376,350.634186 
	C1171.385376,353.650208 1171.385254,355.861908 1171.385254,358.073578 
	C1171.385498,372.904572 1171.285889,387.736725 1171.452759,402.565826 
	C1171.497437,406.521301 1170.540527,408.236633 1166.161377,408.104034 
	C1156.158691,407.801178 1146.140625,408.008331 1135.840332,408.008331 
	C1135.734985,405.883667 1135.600220,404.421509 1135.599365,402.959320 
	C1135.586426,378.962280 1135.716309,354.964020 1135.479614,330.969330 
	C1135.434448,326.387512 1136.908203,325.333008 1141.180176,325.494446 
	C1149.500122,325.808899 1157.849365,325.376038 1166.166870,325.721863 
	C1168.469727,325.817627 1171.215698,327.040985 1172.873047,328.655762 
	C1177.720337,333.378937 1184.157471,333.880341 1188.820801,329.328003 
	C1193.224487,325.029419 1193.202271,318.498352 1188.769775,314.185486 
	C1184.150269,309.690674 1177.604858,310.235901 1172.833008,315.079193 
	C1171.376587,316.557587 1169.023193,317.588074 1166.939453,317.910370 
	C1163.850342,318.388245 1160.635376,318.051849 1156.979004,318.021118 
z"/>
<path fill="#FBFBFB" opacity="1.000000" stroke="none" 
	d="
M1006.428955,335.611328 
	C1000.659241,325.913116 996.547729,315.900757 996.465820,304.903137 
	C996.412231,297.702118 997.661499,290.457092 998.821655,283.312042 
	C999.038818,281.975128 1001.583313,280.058960 1003.080017,280.034821 
	C1018.230103,279.790497 1033.409058,279.418518 1048.524658,280.180145 
	C1052.794800,280.395294 1057.151733,283.809692 1061.010132,286.431763 
	C1078.692383,298.447876 1096.140137,310.809631 1113.853882,322.778198 
	C1117.155029,325.008698 1117.500854,326.860199 1115.716675,330.062744 
	C1100.130127,358.039581 1068.462402,370.406799 1038.057007,360.045044 
	C1024.947144,355.577362 1014.685120,347.102081 1006.428955,335.611328 
z"/>
<path fill="#F8F8F8" opacity="1.000000" stroke="none" 
	d="
M815.753662,362.793427 
	C783.352905,358.505035 760.081238,342.198456 747.458984,312.345367 
	C743.660522,303.361633 742.418884,293.292297 740.064575,283.705872 
	C739.463501,281.258575 740.476196,279.859070 743.108337,279.860077 
	C753.760620,279.864075 764.413025,279.906647 775.065002,279.849152 
	C777.728210,279.834778 778.179565,281.161652 778.505432,283.537354 
	C780.662354,299.263428 787.242432,312.395325 801.734131,320.250580 
	C819.556519,329.911224 849.236816,328.576233 862.727783,309.434540 
	C864.770325,306.536438 866.558777,305.805267 869.958740,307.954681 
	C879.010071,313.676788 888.368103,318.913788 897.585266,324.332550 
	C889.290649,344.280212 856.123474,368.009003 815.753662,362.793427 
z"/>
<path fill="#F9F9F9" opacity="1.000000" stroke="none" 
	d="
M821.169128,189.456985 
	C824.751892,189.455536 828.334656,189.454086 832.529236,189.848541 
	C841.282043,192.238129 849.657654,193.572220 857.513916,196.366425 
	C872.657776,201.752563 885.125671,211.033737 894.446899,224.365692 
	C896.466553,227.254456 895.805176,228.497025 892.965942,230.056625 
	C885.173950,234.336960 877.316223,238.567978 869.935669,243.494431 
	C866.730347,245.633957 865.421326,244.503433 863.323975,242.517288 
	C859.497620,238.893784 855.900452,234.741943 851.434448,232.135162 
	C839.024414,224.891449 825.798767,223.423630 811.759033,227.505386 
	C800.454834,230.791824 791.010498,236.354507 785.468811,246.848816 
	C781.518738,254.329086 778.701721,262.407715 775.182068,270.682373 
	C764.961243,270.682373 753.562805,270.682373 742.224854,270.682373 
	C741.200867,263.090851 744.236572,248.117905 749.001099,239.378555 
	C753.100403,231.859528 757.759949,224.645935 762.171753,217.297272 
	C762.171692,217.297272 762.164368,217.167709 762.564453,217.136810 
	C763.347290,216.789368 763.753296,216.496872 764.109436,216.152802 
	C778.492249,202.257568 795.145264,193.173828 815.454224,191.613159 
	C817.402954,191.463394 819.266174,190.202209 821.169128,189.456985 
z"/>
<path fill="#F7F7F7" opacity="1.000000" stroke="none" 
	d="
M1188.078735,240.288605 
	C1220.960327,228.976212 1249.426636,249.950439 1257.199707,271.663452 
	C1256.244751,271.843719 1255.343140,272.161896 1254.441284,272.162720 
	C1216.926270,272.196777 1179.411011,272.130035 1141.896729,272.301300 
	C1137.098877,272.323181 1134.988037,271.386017 1135.445923,266.005310 
	C1135.994751,259.554993 1135.904541,253.000198 1135.470215,246.532333 
	C1135.130493,241.475204 1137.095581,240.294739 1141.756226,240.496170 
	C1149.571289,240.833908 1157.411743,240.584656 1165.241455,240.589722 
	C1171.694702,240.593903 1171.687256,240.597961 1171.140503,247.009735 
	C1171.071899,247.813019 1171.131104,248.627197 1171.131104,250.012711 
	C1176.911987,246.686111 1182.320923,243.573547 1188.078735,240.288605 
z"/>
<path fill="#F5F5F5" opacity="1.000000" stroke="none" 
	d="
M917.267273,296.005127 
	C917.257996,291.508392 917.360840,287.505768 917.198975,283.513855 
	C917.095947,280.973969 917.973206,279.835938 920.584229,279.835724 
	C936.230652,279.834320 951.877014,279.763062 967.523438,279.752747 
	C967.948486,279.752472 968.373718,280.176422 969.405762,280.725311 
	C967.474976,281.858398 965.836182,282.677826 964.350220,283.716064 
	C956.853699,288.954407 953.406860,296.253448 953.422546,305.326996 
	C953.450867,321.653229 953.430420,337.979553 953.430420,354.305817 
	C953.430420,356.091309 953.430420,357.876801 953.430420,360.197876 
	C941.889038,360.197876 930.979675,360.230988 920.070862,360.177979 
	C916.744568,360.161804 917.238159,357.618469 917.239197,355.477692 
	C917.248718,335.819702 917.257935,316.161743 917.267273,296.005127 
z"/>
<path fill="#F7F7F7" opacity="1.000000" stroke="none" 
	d="
M1098.656860,250.390015 
	C1104.825317,256.991180 1110.698364,263.398590 1116.571411,269.806000 
	C1116.298218,270.354675 1116.025024,270.903351 1115.751831,271.452026 
	C1113.945435,271.684113 1112.139282,272.116028 1110.332642,272.118652 
	C1077.322388,272.166687 1044.312134,272.178436 1011.301941,272.140656 
	C1008.761475,272.137756 1006.221497,271.708496 1003.681335,271.477417 
	C1004.994812,268.938324 1006.029358,266.202026 1007.664062,263.890076 
	C1028.542969,234.362061 1069.495483,228.213989 1098.656860,250.390015 
z"/>
<path fill="#6AAE41" opacity="1.000000" stroke="none" 
	d="
M692.807007,240.371185 
	C702.086853,243.319611 710.624451,246.728470 717.077271,253.948074 
	C721.432678,258.821075 723.966064,264.397186 724.450806,271.212738 
	C720.535583,273.557281 717.090820,273.147369 713.975830,269.662476 
	C710.685852,265.981842 706.672546,264.308990 701.919800,266.305115 
	C697.600952,268.118988 695.234436,271.214874 695.394714,276.376678 
	C695.546753,281.272491 697.792664,284.279358 702.012939,285.863556 
	C706.460754,287.533264 710.710876,286.689301 713.638184,282.792999 
	C716.807861,278.574005 720.447571,278.844238 724.979736,280.718750 
	C724.459229,284.830688 724.150208,288.902924 723.382324,292.886688 
	C722.588501,297.005219 720.485107,299.472382 715.650085,297.963104 
	C703.224731,294.084381 690.452026,291.117249 678.383850,286.352814 
	C666.659546,281.724060 661.130066,271.483612 660.665039,259.162842 
	C660.411621,252.448761 661.730591,245.644928 662.674561,238.928543 
	C663.169861,235.404709 665.645386,233.797714 669.231140,234.635529 
	C676.976929,236.445358 684.698181,238.360016 692.807007,240.371185 
z"/>
<path fill="#F4F4F4" opacity="1.000000" stroke="none" 
	d="
M917.165466,243.582886 
	C918.683899,242.282150 920.213928,240.719711 921.783203,240.679245 
	C930.942932,240.442963 940.112976,240.642929 949.277161,240.519958 
	C952.458496,240.477280 953.784119,241.427200 953.515076,244.848099 
	C953.195923,248.906021 953.439941,253.008255 953.439941,256.791595 
	C958.587769,252.164871 962.965515,246.864578 968.540100,243.621552 
	C973.653442,240.646851 980.023376,239.747177 985.935181,238.332870 
	C986.708801,238.147781 988.955811,240.314117 988.986694,241.433670 
	C989.239441,250.592545 989.263062,259.765961 988.957520,268.921631 
	C988.919067,270.074493 986.573608,272.108795 985.284668,272.118622 
	C963.864380,272.282104 942.442078,272.159760 921.020325,272.181610 
	C918.003052,272.184692 917.068787,271.132507 917.163696,268.017761 
	C917.407166,260.027008 917.213867,252.022995 917.165466,243.582886 
z"/>
<path fill="#F1F1F1" opacity="1.000000" stroke="none" 
	d="
M687.961914,310.114990 
	C687.961914,305.935852 687.961914,302.237915 687.961914,298.506409 
	C697.815247,300.766663 706.937927,302.921265 716.093079,304.927887 
	C719.605774,305.697784 721.292358,307.070068 721.208130,311.230713 
	C720.898621,326.527527 720.992676,341.835907 721.180115,357.136932 
	C721.225037,360.803589 720.165649,362.244019 716.408630,362.155151 
	C708.605469,361.970551 700.787720,361.900787 692.990356,362.182953 
	C688.956299,362.328949 687.849304,360.862885 687.891113,357.007355 
	C688.059204,341.538544 687.961426,326.066833 687.961914,310.114990 
z"/>
<path fill="#F2F2F2" opacity="1.000000" stroke="none" 
	d="
M1090.001831,279.620697 
	C1098.499512,279.597656 1106.500000,279.691132 1114.493164,279.493774 
	C1118.258545,279.400757 1119.985596,280.589844 1120.962036,284.539795 
	C1123.205444,293.616302 1123.361938,302.637482 1121.957520,311.765503 
	C1121.665039,313.666962 1120.950928,315.503601 1120.155273,318.360260 
	C1101.425293,305.453094 1083.372192,293.012390 1065.319092,280.571716 
	C1065.368042,280.253815 1065.416870,279.935883 1065.465820,279.617981 
	C1073.477783,279.617981 1081.489624,279.617981 1090.001831,279.620697 
z"/>
<path fill="#A7A7A7" opacity="1.000000" stroke="none" 
	d="
M761.838074,217.284607 
	C757.759949,224.645935 753.100403,231.859528 749.001099,239.378555 
	C744.236572,248.117905 741.200867,263.090851 742.224854,270.682373 
	C753.562805,270.682373 764.961243,270.682373 775.182068,270.682373 
	C778.701721,262.407715 781.518738,254.329086 785.468811,246.848816 
	C791.010498,236.354507 800.454834,230.791824 811.759033,227.505386 
	C825.798767,223.423630 839.024414,224.891449 851.434448,232.135162 
	C855.900452,234.741943 859.497620,238.893784 863.323975,242.517288 
	C865.421326,244.503433 866.730347,245.633957 869.935669,243.494431 
	C877.316223,238.567978 885.173950,234.336960 892.965942,230.056625 
	C895.805176,228.497025 896.466553,227.254456 894.446899,224.365692 
	C885.125671,211.033737 872.657776,201.752563 857.513916,196.366425 
	C849.657654,193.572220 841.282043,192.238129 832.963867,189.944977 
	C840.847839,191.047592 849.259705,191.432343 856.896851,194.064651 
	C872.550293,199.459946 885.587646,208.949890 895.380005,222.609451 
	C899.265564,228.029602 899.502197,227.988327 893.875000,231.347748 
	C884.678162,236.838303 875.403442,242.198471 866.036682,247.686737 
	C862.813538,244.237778 860.033264,240.761719 856.754822,237.845703 
	C845.566711,227.894348 832.118896,226.714172 817.987427,228.187119 
	C799.171753,230.148315 782.767639,244.605820 780.151611,265.105652 
	C779.191589,272.628784 778.618958,273.123749 771.176453,273.134491 
	C762.512085,273.147003 753.847717,273.170380 745.183411,273.144073 
	C739.640015,273.127258 739.169617,272.240417 739.739380,266.723236 
	C741.338074,251.241730 746.490967,237.117935 755.419312,224.400146 
	C757.206360,221.854675 759.463806,219.639435 761.838074,217.284607 
z"/>
<path fill="#A7A7A7" opacity="1.000000" stroke="none" 
	d="
M820.724609,189.294586 
	C819.266174,190.202209 817.402954,191.463394 815.454224,191.613159 
	C795.145264,193.173828 778.492249,202.257568 764.109436,216.152802 
	C763.753296,216.496872 763.347290,216.789368 762.629150,217.140594 
	C765.498413,213.792938 768.344116,209.952896 771.970886,207.109100 
	C786.116455,196.017502 802.158142,189.697693 820.724609,189.294586 
z"/>
</svg>